# xmcd
#
# Track frame offsets: 
#        150
#        18772
#        43432
#
# Disc length: 1156 seconds
#
# Revision: 0
# Processed by: cddbd v1.5.1PL0 Copyright (c) Steve Scherf et al.
# Submitted via: ExactAudioCopy v0.95a4
#
DISCID=1e048203
DTITLE=R.E.M. - Bad Day UK CD Single 1
DYEAR=2003
DGENRE=Rock
TTITLE0=Bad Day
TTITLE1=Favorite Write
TTITLE2=Bad Day Video
EXTD=
EXTT0=
EXTT1=
EXTT2=
PLAYORDER=
